<?xml version="1.0" encoding="UTF-8"?>
<svg width="200px" height="220px" viewBox="0 0 200 220" version="1.1" xmlns="http://www.w3.org/2000/svg" xmlns:xlink="http://www.w3.org/1999/xlink">
    <!-- Generator: Sketch 59.1 (86144) - https://sketch.com -->
    <title>Icon /  ic_studies_01</title>
    <desc>Created with Sketch.</desc>
    <defs>
        <linearGradient x1="19.2885526%" y1="0%" x2="67.8173136%" y2="100%" id="linearGradient-1">
            <stop stop-color="#2DD6BC" offset="0%"></stop>
            <stop stop-color="#00BABC" offset="100%"></stop>
        </linearGradient>
        <linearGradient x1="36.9871185%" y1="0%" x2="57.5494517%" y2="100%" id="linearGradient-2">
            <stop stop-color="#2DD6BC" offset="0%"></stop>
            <stop stop-color="#00BABC" offset="100%"></stop>
        </linearGradient>
        <linearGradient x1="38.4869698%" y1="0%" x2="56.6793097%" y2="100%" id="linearGradient-3">
            <stop stop-color="#2DD6BC" offset="0%"></stop>
            <stop stop-color="#00BABC" offset="100%"></stop>
        </linearGradient>
        <linearGradient x1="19.2885526%" y1="49.8580971%" x2="67.8173136%" y2="50.1419029%" id="linearGradient-4">
            <stop stop-color="#2DD6BC" offset="0%"></stop>
            <stop stop-color="#00BABC" offset="100%"></stop>
        </linearGradient>
    </defs>
    <g id="Icon-/--ic_studies_01" stroke="none" stroke-width="1" fill="none" fill-rule="evenodd">
        <g transform="translate(18.000000, 24.000000)"></g>
        <g id="Group" transform="translate(18.000000, 24.000000)" fill-rule="nonzero">
            <path d="M28.5,114 C44.2401154,114 57,126.759885 57,142.5 C57,158.240115 44.2401154,171 28.5,171 C12.7598846,171 0,158.240115 0,142.5 C0,126.759885 12.7598846,114 28.5,114 Z M28.5,117 C14.4167389,117 3,128.416739 3,142.5 C3,156.583261 14.4167389,168 28.5,168 C42.5832611,168 54,156.583261 54,142.5 C54,128.416739 42.5832611,117 28.5,117 Z" id="Oval" fill="url(#linearGradient-1)"></path>
            <path d="M160.5,114 C176.240115,114 189,126.759885 189,142.5 C189,158.240115 176.240115,171 160.5,171 C144.759885,171 132,158.240115 132,142.5 C132,126.759885 144.759885,114 160.5,114 Z M160.5,117 C146.416739,117 135,128.416739 135,142.5 C135,156.583261 146.416739,168 160.5,168 C174.583261,168 186,156.583261 186,142.5 C186,128.416739 174.583261,117 160.5,117 Z" id="Oval-Copy-6" fill="url(#linearGradient-1)"></path>
            <polygon id="Path-9" fill="url(#linearGradient-2)" points="74.4500268 60.4716369 45.1817341 107.775985 47.7329 109.35445 77.0011927 62.0501022"></polygon>
            <polygon id="Path-9-Copy" fill="url(#linearGradient-3)" transform="translate(126.910256, 84.913043) scale(-1, 1) translate(-126.910256, -84.913043) " points="139.251898 60.5114697 111.969846 107.815818 114.568615 109.314617 141.850666 62.0102694"></polygon>
            <polygon id="Path-9-Copy-2" fill="url(#linearGradient-4)" points="122.613705 137.4375 66.3004518 137.4375 66.3004518 140.4375 122.613705 140.4375"></polygon>
            <path d="M94.5,0 C110.240115,0 123,12.7598846 123,28.5 C123,44.2401154 110.240115,57 94.5,57 C78.7598846,57 66,44.2401154 66,28.5 C66,12.7598846 78.7598846,0 94.5,0 Z M94.5,3 C80.4167389,3 69,14.4167389 69,28.5 C69,42.5832611 80.4167389,54 94.5,54 C108.583261,54 120,42.5832611 120,28.5 C120,14.4167389 108.583261,3 94.5,3 Z" id="Oval-Copy-5" fill="url(#linearGradient-1)"></path>
        </g>
    </g>
</svg>