<svg xmlns="http://www.w3.org/2000/svg" width="40" height="40" viewBox="0 0 40 40">
    <g fill="#FFF" fill-rule="evenodd" opacity=".8">
        <path d="M20 0C8.954 0 0 8.954 0 20s8.954 20 20 20 20-8.954 20-20S31.046 0 20 0zm-4.397 9.398c1.138-.052 1.501-.065 4.398-.065h-.003c2.897 0 3.26.013 4.397.065 1.136.052 1.912.232 2.592.495a5.214 5.214 0 0 1 1.889 1.23 5.234 5.234 0 0 1 1.23 1.89c.263.678.443 1.453.496 2.589.051 1.138.065 1.501.065 4.398s-.014 3.26-.065 4.398c-.053 1.135-.233 1.91-.495 2.588a5.236 5.236 0 0 1-1.232 1.89 5.22 5.22 0 0 1-1.888 1.23c-.678.265-1.454.444-2.59.496-1.138.052-1.5.065-4.397.065-2.897 0-3.26-.013-4.398-.065-1.136-.052-1.91-.231-2.59-.495a5.224 5.224 0 0 1-1.888-1.231 5.226 5.226 0 0 1-1.23-1.89c-.264-.678-.444-1.453-.496-2.589-.052-1.137-.065-1.5-.065-4.397 0-2.897.014-3.26.065-4.398.05-1.136.23-1.91.495-2.59a5.237 5.237 0 0 1 1.231-1.889 5.223 5.223 0 0 1 1.89-1.23c.678-.263 1.453-.443 2.589-.495z"/>
        <path d="M19.044 11.256h.957c2.848 0 3.186.01 4.31.06 1.04.048 1.605.222 1.98.368.499.194.853.425 1.227.798.373.373.604.729.798 1.227.146.375.32.94.367 1.98.051 1.124.062 1.462.062 4.309 0 2.846-.01 3.184-.062 4.309-.047 1.04-.221 1.604-.367 1.98a3.298 3.298 0 0 1-.798 1.225 3.299 3.299 0 0 1-1.226.798c-.376.146-.94.32-1.98.367-1.125.052-1.463.063-4.31.063-2.85 0-3.187-.011-4.311-.063-1.04-.048-1.605-.221-1.98-.367a3.304 3.304 0 0 1-1.228-.798 3.307 3.307 0 0 1-.798-1.226c-.146-.376-.32-.94-.367-1.98-.051-1.125-.061-1.463-.061-4.311s.01-3.184.06-4.309c.048-1.04.222-1.604.368-1.98.194-.498.425-.854.798-1.227a3.31 3.31 0 0 1 1.227-.798c.376-.147.94-.32 1.98-.368.985-.045 1.366-.058 3.354-.06v.003zm6.65 1.77a1.28 1.28 0 1 0 0 2.561 1.28 1.28 0 0 0 0-2.56zM14.525 20a5.478 5.478 0 1 1 10.955 0 5.478 5.478 0 0 1-10.956 0z"/>
        <path fill-rule="nonzero" d="M20 16.445a3.556 3.556 0 1 1 0 7.11 3.556 3.556 0 0 1 0-7.11z"/>
    </g>
</svg>
